<mxfile modified="2023-06-10T18:33:30.626Z" host="app.diagrams.net" agent="Mozilla/5.0 (Windows NT 10.0; Win64; x64) AppleWebKit/537.36 (KHTML, like Gecko) Chrome/114.0.0.0 Safari/537.36" etag="MyPfn_h7qA-M-3tDMzFs" version="21.3.8" type="github">
  <diagram id="f106602c-feb2-e66a-4537-3a34d633f6aa" name="Page-1">
    <mxGraphModel dx="2404" dy="636" grid="1" gridSize="10" guides="1" tooltips="1" connect="1" arrows="1" fold="1" page="1" pageScale="1" pageWidth="1169" pageHeight="827" background="none" math="0" shadow="0">
      <root>
        <mxCell id="0" />
        <mxCell id="1" parent="0" />
        <mxCell id="706" value="&lt;b&gt;Report Dashboard&lt;/b&gt;" style="rounded=1;absoluteArcSize=1;arcSize=2;html=1;strokeColor=none;gradientColor=none;shadow=1;dashed=0;strokeColor=none;fontSize=12;fontColor=#9E9E9E;align=left;verticalAlign=top;spacing=10;spacingTop=-4;fillColor=#FFF8E1;" parent="1" vertex="1">
          <mxGeometry x="770" y="70.23" width="120" height="100" as="geometry" />
        </mxCell>
        <mxCell id="711" value="&amp;nbsp; &amp;nbsp; &amp;nbsp; &amp;nbsp; &amp;nbsp; &lt;b&gt;DOCKER HOST&lt;/b&gt;" style="rounded=1;absoluteArcSize=1;arcSize=2;html=1;strokeColor=none;gradientColor=none;shadow=1;dashed=0;strokeColor=none;fontSize=12;fontColor=#9E9E9E;align=left;verticalAlign=top;spacing=10;spacingTop=-4;fillColor=#E1F5FE;" parent="1" vertex="1">
          <mxGeometry x="380" y="230" width="260" height="100" as="geometry" />
        </mxCell>
        <mxCell id="Nx4aOD4Tvk4-uZYK7guE-753" value="" style="edgeStyle=orthogonalEdgeStyle;rounded=0;orthogonalLoop=1;jettySize=auto;html=1;fillColor=#6a00ff;strokeColor=#3700CC;" parent="1" edge="1">
          <mxGeometry relative="1" as="geometry">
            <mxPoint x="200" y="119.81999999999996" as="sourcePoint" />
            <mxPoint x="310" y="119.41" as="targetPoint" />
            <Array as="points">
              <mxPoint x="200" y="119.81999999999996" />
            </Array>
          </mxGeometry>
        </mxCell>
        <mxCell id="705" value="Github" style="rounded=1;absoluteArcSize=1;arcSize=2;html=1;strokeColor=none;gradientColor=none;shadow=1;dashed=0;strokeColor=none;fontSize=12;fontColor=#9E9E9E;align=left;verticalAlign=top;spacing=10;spacingTop=-4;fillColor=#FFF8E1;" parent="1" vertex="1">
          <mxGeometry x="130" y="62.96" width="70" height="100" as="geometry" />
        </mxCell>
        <mxCell id="707" value="&lt;b&gt;&lt;br&gt;&lt;br&gt;&lt;br&gt;&amp;nbsp; &amp;nbsp; &amp;nbsp; &amp;nbsp; &amp;nbsp; ango UI&lt;/b&gt;" style="rounded=1;absoluteArcSize=1;arcSize=2;html=1;strokeColor=none;gradientColor=none;shadow=1;dashed=0;strokeColor=none;fontSize=12;fontColor=#9E9E9E;align=left;verticalAlign=top;spacing=10;spacingTop=-4;fillColor=#F1F8E9;" parent="1" vertex="1">
          <mxGeometry x="500" y="64.99999999999997" width="120" height="110" as="geometry" />
        </mxCell>
        <mxCell id="689" value="" style="shape=image;html=1;verticalAlign=middle;verticalLabelPosition=bottom;labelBackgroundColor=#ffffff;imageAspect=0;aspect=fixed;image=https://cdn4.iconfinder.com/data/icons/miu-black-social-2/60/github-128.png;fontSize=10;fillColor=#ffffff;strokeColor=#dddddd;fontColor=#9E9E9E;shadow=1;strokeWidth=1;rounded=1;arcSize=2;" parent="1" vertex="1">
          <mxGeometry x="130" y="96" width="60" height="60" as="geometry" />
        </mxCell>
        <mxCell id="699" value="&lt;br&gt;&lt;br&gt;&lt;br&gt;&lt;br&gt;&lt;br&gt;&lt;br&gt;jenkins" style="strokeColor=#dddddd;fillColor=#ffffff;shadow=1;strokeWidth=1;rounded=1;absoluteArcSize=1;arcSize=2;fontSize=10;fontColor=#9E9E9E;align=center;html=1;" parent="1" vertex="1">
          <mxGeometry x="310" y="70.22999999999999" width="110" height="97.91" as="geometry" />
        </mxCell>
        <mxCell id="703" value="&lt;b&gt;&amp;nbsp; &amp;nbsp; &amp;nbsp; &amp;nbsp; &amp;nbsp; &amp;nbsp; &amp;nbsp; &amp;nbsp; &amp;nbsp; &amp;nbsp; &amp;nbsp;{Test framework}&lt;/b&gt;" style="strokeColor=#dddddd;fillColor=#ffffff;shadow=1;strokeWidth=1;rounded=1;absoluteArcSize=1;arcSize=2;fontSize=10;fontColor=#9E9E9E;align=center;html=1;" parent="1" vertex="1">
          <mxGeometry x="460" y="260" width="160" height="60" as="geometry" />
        </mxCell>
        <mxCell id="Nx4aOD4Tvk4-uZYK7guE-722" style="edgeStyle=orthogonalEdgeStyle;shape=flexArrow;rounded=0;orthogonalLoop=1;jettySize=auto;html=1;" parent="1" source="Nx4aOD4Tvk4-uZYK7guE-721" edge="1">
          <mxGeometry relative="1" as="geometry">
            <mxPoint x="130" y="110" as="targetPoint" />
            <Array as="points">
              <mxPoint x="55" y="110" />
              <mxPoint x="55" y="110" />
            </Array>
          </mxGeometry>
        </mxCell>
        <mxCell id="Nx4aOD4Tvk4-uZYK7guE-721" value="&lt;b&gt;Developers&lt;/b&gt;" style="sketch=0;outlineConnect=0;fontColor=#232F3E;gradientColor=none;strokeColor=#232F3E;fillColor=#ffffff;dashed=0;verticalLabelPosition=bottom;verticalAlign=top;align=center;html=1;fontSize=12;fontStyle=0;aspect=fixed;shape=mxgraph.aws4.resourceIcon;resIcon=mxgraph.aws4.users;" parent="1" vertex="1">
          <mxGeometry x="-80" y="79.59" width="60" height="60" as="geometry" />
        </mxCell>
        <mxCell id="693" value="" style="strokeColor=#dddddd;fillColor=#ffffff;shadow=1;strokeWidth=1;rounded=1;absoluteArcSize=1;arcSize=2;fontSize=10;fontColor=#9E9E9E;align=center;html=1;" parent="1" vertex="1">
          <mxGeometry x="790" y="100" width="80" height="64.59" as="geometry" />
        </mxCell>
        <mxCell id="694" value="" style="dashed=0;connectable=0;html=1;fillColor=#5184F3;strokeColor=none;shape=mxgraph.gcp2.google_analytics;part=1;labelPosition=right;verticalLabelPosition=middle;align=left;verticalAlign=middle;spacingLeft=5;fontColor=#999999;fontSize=12;" parent="693" vertex="1">
          <mxGeometry width="45" height="45" relative="1" as="geometry">
            <mxPoint x="5" y="7" as="offset" />
          </mxGeometry>
        </mxCell>
        <mxCell id="Nx4aOD4Tvk4-uZYK7guE-723" value="" style="shape=image;verticalLabelPosition=bottom;verticalAlign=top;imageAspect=0;aspect=fixed;image=data:image/jpeg,/9j/4AAQSkZJRgABAQAAAQABAAD/2wCEAAkGBwgHBgkIBwgKCgkLDRYPDQwMDRsUFRAWIB0iIiAdHx8kKDQsJCYxJx8fLT0tMTU3Ojo6Iys/RD84QzQ5OjcBCgoKDQwNGg8PGjclHyU3Nzc3Nzc3Nzc3Nzc3Nzc3Nzc3Nzc3Nzc3Nzc3Nzc3Nzc3Nzc3Nzc3Nzc3Nzc3Nzc3N//AABEIAIIAqwMBIgACEQEDEQH/xAAcAAEAAgIDAQAAAAAAAAAAAAAABQYBBwIDBAj/xAA9EAABAwMCAwUFBgQFBQAAAAABAAIDBAURBiESE1EHMUFhcRQigZGhFTJCscHwI2KS0TNSU3KCFiRUc7L/xAAaAQEAAgMBAAAAAAAAAAAAAAAAAwQBAgUG/8QAJxEBAAICAQMDAwUAAAAAAAAAAAECAxEEEiFREzFBBXHRFCIkMqH/2gAMAwEAAhEDEQA/AN4oiICIiAiIgIiICLBVM1D2jWu1mpht0M93qqZpdMykH8OHH+eT7rfqfJBdFjK1RbtUdomqA2otVtoLVQOGWzVIL+IeWcE+vDhe97e02nHMiu9kqz/pSUxYD8QteqvlnplslFram7SbhaKhlPrqxSWuN54W10DubDnzxnHzPotiwTR1ELJoJGyRPaHMew5DgfEFbb2xrTsREQEREBERAREQEREBERAREQFjyWVRu1651VHp2lt9BKYqi7VsdCJGndjX54j8hj4oKzq/V9JdbhXUdZcxT2WjldT+yQycM1xmbs4Ej3mxA7bd/Ve/SlljutFTXO4xRi3DD7fbY28MLAPuyOb+I9A7OO/v7qtTyU9liNJYo208DNnT8IMs2PxFx3APg0bBXzQrHs0haWynvhD/AIOJI+hUWW0xCTHXcp2acMaHSyNjaThvE4DJ6BY9VVGaSp71UzXHVkHtdS+R4gpnyHlU0WSGtABwSQAS7qVZ4uWxvKiIxEAzhznh2GB8sKtOvhPG2ZoIqqF9PPE2WKQcL2PGQ4ea1/pHUFHo/VrdO0t0hrrBWyFtOGSh5oZs7sJ6EnH7K2ERlpB7jsVVNX6RtNzs8sFPSQUtdFC6SkkgaGOaWgdMZHcN+oW+O/TPdrkrts1FHaer/tSx2+4f+TTRy7fzNBUirasIiICIiAiIgIiICIiAiLBQeG+XWjstrqLjcZOXTQN4nHGSegHUk7YXz9qLUF41NfrZcpopCPbGOt9sj3IYHAj/AJHAyfPorN2m3j7f1OLJG4OttqIkqQCcPn8Gn0B+pUfpaeCDXNskq8COaGWnjz4PcNvidx8VDfJq/TDoYuH/ABrZ7faPy8Nyo71a4Yzd7c2nhqXcmOaKobKGSEbNfjuPf8ltfTskcun7Y+LZhpIsDphoCr1HoK2CKpinhcyCrklNVTskcGyHm8UThg+6WgY2xsd1abfQ09toYaKii5VPAwMjZknA9TuVHkvFoQUrMO6V5jjfI1hkLGk8DcZdjwGVVrdfau5anhdS2W401PNCW13tkXAIy0Esc053OSWkDwx0VrXF72xse97uFrWkuPQd6iidN5hA6grX2O5Ut3fn7Oe32aud/pAnMcnoHEg/7s+C6rhJf62/UscFrp4bfSvLvtB1WHc6NzMObywMjw+ICn6n2Waie6oMT6OSP3zJswsI8fJU/SVa6itd95NT7TYbfn7NqXnJLAwlzQ78TWnDQfI9FJX2ay49jmsg6mpdMXUCOaOL/sJjgCeMZPCfDiaPmB1G+2F8yto5jaqPkOdFWU7GvglbsWPGDst9aF1E3U+mqS5cIZMQY54x+CRpwfh4jyKnx5OuGeXxJ48x4mFhREUioIiICIiAiIgIiIC8V4ro7Za6yvmxy6aB8rs/ytJXtVQ7WJzB2f3jhOC+IR/1OA/VBpq0GR9D7XPg1NbI6plcPFzjldtZSsq4eW8lpBDmuad2uHcQuyJoZBEwDAZG1o+AXNcq1p6tvcY8NIwxjmO2tJjRd2vdy1XQ2u9Xd8lPBC+ePlMDDO5pADXkbkAEnHjjdbMmljgYXzODGBwbxHYZJwPqQtFVF5jtV1oa6ldzKuinEhYzxZ+Np9RkLd7JaG+WoTxcFTQVsRB6Oa4btPn3jyVidzWLaeZ5NKYs1qUns9QAJwc48VW7hcbxNUVMdlhoqiWH3ZrfWExyYzs9rgcFrh1Hx8B2QXJ9lmZbr3I7kkhtHcH/AHJR4MefwvHU7O8N8hd9/wBM2rUPIfcIHGWHeGohkMb2A9HDwSNRPdBO5jspNDZbsIZhNoRvNpmNdSRVV2M8PFxAEBrn8Iw0uI9MLlqua70tj9lvldG+5XZ4hjpKYYipoGkGTHUkYBJ64Cmaij0xotza+ur6x07AeVFPWSSuce7aPOD6kbd/mtdXW/VdffXXi6Qujp6hvLpxxcXIYO4bde8+ql/daJmsGKKepWt51CR27vBWfsdrTR6nu9oJxDVxtq4m/wA49135j5KrtcHNDmkEHcEL26OmNP2lWBzduc2aJ3mOW44+eFBx51fTv/VqRbjb8ab8REV95UREQEREBERAREQFUO1mEzdn94wM8uISf0uB/RW9eG80LLnaq2glxy6qB8Ts9HNI/VB8/e0sjoW1L3HgEYcSPRR7X1d0HESaSjPjn3pB+n7712UEL5LZNbqpobPTufTTNz3Obsfr+S6aGR09oDH/AOJTP5Tvh+/ooOLipN56veHZ+q8zNGDHOOdVtD0xOpKKIx0kQORuevqfFc9OV7LHUzv5NZJTzOBc2krHQvjPiQPuu9CPDvXiWNicZ36LoWiLRqXm62ms7hJ103/UE9ZPPV3J9OZOXBHPPu1gA2cAME5J8F4qcVNmLIRVVtRSSODGQw3B1KW/IOHyCxTV0NEZW1L+BjsPadzk9xH0CkH008tJHcK6mlbZ2Pa+eNri2aSPO7xjdoGx6kdPHm9OX1ZiPZ6SbcL9HW1v7f7tHRW2hra2ondSOg4HcJgM75ST1dKfvHyAC4taymqaukEQNKeFwiJyACN/qFfNQaLt9DFSVNqdU0cFRVNjBbU85s7DGXcz3slpyMfVUq7UooLtVRe0moa0Nc57gAWnH3TjY4GD8VYw0vF+qZ7KHK5HHtx4xUrq297cLI0xTVkMb3Opo3N5fF4ZGSP30Vh0fCajtK0+1u/JE8zvIctwz88KFs8ZZQte/Z0pMh+J2+mFdOx2iNbqi7XcjMVJE2kid/M73nfkPmqtdWzzMOryN4vptK2nvOvy3EiIrbgCIiAiIgIiICIiAsFZRBpPtRspsGp23uGPFvuhDJ8DZk++5/3D8iqc1giulbABtPDzR6g4K+jb5aqO9Wuot1wj5lNUN4XDO46EHwIO+V8/XnTtx0vqSnoK/wDi05a9lJVY/wAWPGwPRwxuFildZYtCxfP1cW2G3x3hHLlC0cNS7q1n5lceHJwTjzxnHwU1oXSMWobrU0JvFTTsZTiUiKJuXgOwRvnGMj5q1M9PdzK12gZmPewBhDXBwd7wyDg5wfJWih1lTvbyL3TGnJHCZGZfG8fmPqr3T9kOnmMaKmpudQR3l1RwZ/pAXe/sj0i5uDT1vr7bJ/dR+p4Sxij2lrqPUNBRWyCigMdRXUc7mxSs358DWOEILujRK4f8SqtWPDmtjmmAfM/+JI44793Eqa1fpW2WTUdVQU8kwgFOySEPOSC4vBGcb/dHzUxpXSllqLLpK/PpBIZ651NcIpXlzJDl7WnGcDDmt27t91ruYr90kRE334QVHPVXZs0OnrfVV0kTcF0MZLWeq2/2Qst0eiaSO2Sule17vay9ha8T594EHuxsB5YUpbHVNLdJKOQtdEDiKKDkxRRN79mAl5PUnv7wAoayO+y+1O+25mfZ7nSxV7G+DZG+4/HrsVDTHFPZb5PKyciYm/wvaIi3VhERAREQEREBERAREQFq7tzzT0tkr3RuMFPVPEsgGzA5u2fktori9jXgh7Q5pGCD3FInXdiY2+XI5o528cbg4K39lVT7NremaTgVNPLD39591w/+Vd9S9lNhuzn1Fu47TWu35lOMsJ8484+WFTKnRd20LcrRfqi5wVtLT3GJknLhMbmtflhcck7YdjHmpJvuEcY9W3DeKysBZUaVo3tZ4ItVRvkcGiSmwMnvw93910aEkvV10gLVZLYakUl1bUGofOyOJpDmv4ckl2Tv3DbKvmobXRXLVbYKulhmLqCYRmRgdwnibuM+O693ZVK2XQdrYGhr4GvglA/zse5pPxxn4rO+2mNanaBGprtDXSR33TTqaRsmOKGmkqi/za5sXD9VLaSprhdNT12pLnRTUUXIbSUUVRgSPZnie9wHdk4wD0V2wmFhllERAREQEREBERAREQEREBERAUNrGzi/6Yudr24qinc2MnwfjLT88KZRBRdJdo+nq60Ucdwu1PS3FkTWVMM5LCJAMOwSADv4hWN+p7CyPjdeaDh6ioaf1S4aYsVye59faaOd7u9z4W5PxUeOzzR4ORp2gz/6kFM1Rd4tRa0sdFpbUDYJ5+fDUy0zBK6OPha7O+25ZjOdsrYelrBT6bs8dupZJZWte6R8spy6R7nEknHmV32yx2q1ZNst1LSlwwTDEGkj1CkEBERAREQEREBERAREQEREBERAREQEREBERAREQEREBERAREQEREH/2Q==" parent="1" vertex="1">
          <mxGeometry x="325" y="82.55000000000001" width="80" height="60.82" as="geometry" />
        </mxCell>
        <mxCell id="Nx4aOD4Tvk4-uZYK7guE-724" value="" style="shape=image;html=1;verticalAlign=top;verticalLabelPosition=bottom;labelBackgroundColor=#ffffff;imageAspect=0;aspect=fixed;image=https://cdn2.iconfinder.com/data/icons/boxicons-logos/24/bxl-django-128.png;shadow=0;" parent="1" vertex="1">
          <mxGeometry x="500" y="96" width="48" height="48" as="geometry" />
        </mxCell>
        <mxCell id="Nx4aOD4Tvk4-uZYK7guE-731" value="" style="shape=image;html=1;verticalAlign=top;verticalLabelPosition=bottom;labelBackgroundColor=#ffffff;imageAspect=0;aspect=fixed;image=https://cdn1.iconfinder.com/data/icons/unicons-line-vol-3/24/docker-128.png" parent="1" vertex="1">
          <mxGeometry x="380" y="230" width="40" height="40" as="geometry" />
        </mxCell>
        <mxCell id="Nx4aOD4Tvk4-uZYK7guE-732" value="" style="shape=image;verticalLabelPosition=bottom;verticalAlign=top;imageAspect=0;image=data:image/png,iVBORw0KGgoAAAANSUhEUgAAAH4AAAB+CAMAAADV/VW6AAAAulBMVEX///82bZw2dqv/1E3/yz02a5j/zkL/1VA2cqT/yTj/11L/0EYmY5P/1EGHm63T2uJjfZYrcqr++Oh0i6HQ3ekZTnQgUnaPrMuotcLw8/U0XH7p7vOxwdJzlrr/yCn/4ImYq7v/9tuiudL/2GgUYpn31Hv+8cz2wSb/5abg5OjJ0Ni4w8y+z96Vrshoj7RMd54AVox/m7dFeqhTiLf/1G795rAMaKX625L/0Vn/7L78+fJBZYMARW5Sco3Lq9zMAAAC50lEQVRoge3Za1OqQBjA8TWQwAsXV4mVQjQrF4zK0kwO3/9rnV0uYjXUG3c5M+f5v2BobOa3F1yaCSEIgiAIgiAIgiAIgv7jCGVZFrv48vH1Y7KsenocS9YXS2fZ0TtF3cGz3AUgG30TJUe+O3iRyvtLnSJ0deS7g7Vknm334oS/lsy/oOuN3h6v6x29Xb7T1uKjcdliIJlf3yRJclOVHGc/umPNBePj153D0vVviz8PDMMI3oTq/sa54On66QBKXlWZvxXJJ4XezBu3B4H87uI3PhC4/WPnM3/yvV9X/L04/sppmP3gCb0bBT9rge/SkarmvKHJ4Zd1z8/0EFS8IW71a3758ukNe79XNZn8Am1ndW+BpknknSs0HCpKn6XxVE0qv/O3Su/yUlGKIZRjEP7oXRe8c3Po9Rr4YCWOL089ZzEaNvIiX3q/8/uRQH69+4UXuval38wHD0J19vS97pa7mu+zGecP/EPeSuTSFxFCUMX3Z6OyAzqwhONFx9n3bov2H5Lkz7zC9z0wVLF/ZP3A97XL+bthtMYr7KCZtTd7ftCsAql7j2bDevHv0Eewl6ozv6dUx46mBntZX7ljW6U/ZPHDrt+XrrM+VmUt2GWkPZoVm63yZmu8FbfK47BV3pTIEy8MPfaUU4/mP/nIszG7Z2PwPC9//OPQzD9EiP+udU7dTENCbIxQNOE7Tv5YyMtwzPg0C+PMZr45jVDo+uwmiwnNUnpG3s7YxZp4KJrm/MSqFj+L2JJMPeRP+DZg7BfPhOV65+Tt/Iq/8/yCpibCLr+J3QjhHHbDs/NhSht5O+f5x+L4qRWxHf6Bt0Ty2CaR++Pi89GJ4onL9r6Jt/IP4swXwqcWX3sP0RRTREPXKk+c4thhPOEjpCkbg5DZY4xTvu10mrEvNufpFEc1j0iIzYzLwva+biL3Nf+F9ydy/3H1hcep3NlnWX1vhanst2x0Ato4kqxDEARBEARBEARBEAT9s/0FrK5c3x3+PasAAAAASUVORK5CYII=" parent="1" vertex="1">
          <mxGeometry x="470" y="265.5" width="60" height="49" as="geometry" />
        </mxCell>
        <mxCell id="Nx4aOD4Tvk4-uZYK7guE-734" value="" style="shape=image;html=1;verticalAlign=top;verticalLabelPosition=bottom;labelBackgroundColor=#ffffff;imageAspect=0;aspect=fixed;image=https://cdn1.iconfinder.com/data/icons/unicons-line-vol-3/24/docker-128.png" parent="1" vertex="1">
          <mxGeometry x="380" y="230" width="40" height="40" as="geometry" />
        </mxCell>
        <mxCell id="Nx4aOD4Tvk4-uZYK7guE-741" value="&lt;b style=&quot;font-size: 11px;&quot;&gt;&lt;br&gt;&lt;br&gt;&lt;br&gt;&lt;br&gt;&lt;br&gt;&lt;br&gt;Production&lt;/b&gt;" style="strokeColor=#6c8ebf;fillColor=#dae8fc;shadow=1;strokeWidth=1;rounded=1;absoluteArcSize=1;arcSize=2;fontSize=10;align=center;html=1;glass=1;" parent="1" vertex="1">
          <mxGeometry x="980" y="72.32" width="110" height="97.91" as="geometry" />
        </mxCell>
        <mxCell id="Nx4aOD4Tvk4-uZYK7guE-742" value="" style="outlineConnect=0;dashed=0;verticalLabelPosition=bottom;verticalAlign=top;align=center;html=1;shape=mxgraph.aws3.server_migration_service;fillColor=#5294CF;gradientColor=none;" parent="1" vertex="1">
          <mxGeometry x="1010.0000000000001" y="79.58999999999999" width="53.25" height="67.55" as="geometry" />
        </mxCell>
        <mxCell id="Nx4aOD4Tvk4-uZYK7guE-745" value="" style="shape=image;html=1;verticalAlign=top;verticalLabelPosition=bottom;labelBackgroundColor=#ffffff;imageAspect=0;aspect=fixed;image=https://cdn3.iconfinder.com/data/icons/business-and-education-1/512/227_Manager_Employee_Doctor_Person_Business_Man-128.png" parent="1" vertex="1">
          <mxGeometry x="770" y="225" width="104" height="104" as="geometry" />
        </mxCell>
        <mxCell id="Nx4aOD4Tvk4-uZYK7guE-762" value="" style="edgeStyle=orthogonalEdgeStyle;shape=flexArrow;rounded=0;orthogonalLoop=1;jettySize=auto;html=1;" parent="1" edge="1">
          <mxGeometry relative="1" as="geometry">
            <mxPoint x="829.41" y="225" as="sourcePoint" />
            <mxPoint x="829.41" y="175" as="targetPoint" />
          </mxGeometry>
        </mxCell>
        <mxCell id="Nx4aOD4Tvk4-uZYK7guE-746" value="&lt;b&gt;&lt;br&gt;&lt;br&gt;&lt;br&gt;&lt;br&gt;&lt;br&gt;&lt;br&gt;PROD MANAGER&lt;/b&gt;" style="whiteSpace=wrap;html=1;fillColor=none;shadow=1;glass=1;" parent="1" vertex="1">
          <mxGeometry x="766" y="225" width="128" height="130" as="geometry" />
        </mxCell>
        <mxCell id="Nx4aOD4Tvk4-uZYK7guE-748" value="" style="points=[[0.35,0,0],[0.98,0.51,0],[1,0.71,0],[0.67,1,0],[0,0.795,0],[0,0.65,0]];verticalLabelPosition=bottom;sketch=0;html=1;verticalAlign=top;aspect=fixed;align=center;pointerEvents=1;shape=mxgraph.cisco19.user;fillColor=#005073;strokeColor=none;" parent="1" vertex="1">
          <mxGeometry x="500" y="410" width="90" height="90" as="geometry" />
        </mxCell>
        <mxCell id="Nx4aOD4Tvk4-uZYK7guE-750" value="&lt;b&gt;Test engineer&amp;nbsp;&lt;/b&gt;" style="whiteSpace=wrap;html=1;fillColor=none;strokeColor=none;" parent="1" vertex="1">
          <mxGeometry x="490" y="510" width="100" height="20" as="geometry" />
        </mxCell>
        <mxCell id="Nx4aOD4Tvk4-uZYK7guE-754" value="" style="edgeStyle=orthogonalEdgeStyle;rounded=0;orthogonalLoop=1;jettySize=auto;html=1;fillColor=#6a00ff;strokeColor=#3700CC;endArrow=classic;endFill=1;exitX=1;exitY=0.5;exitDx=0;exitDy=0;" parent="1" edge="1" source="706">
          <mxGeometry relative="1" as="geometry">
            <mxPoint x="960" y="123.89" as="sourcePoint" />
            <mxPoint x="980" y="123" as="targetPoint" />
            <Array as="points">
              <mxPoint x="890" y="123" />
            </Array>
          </mxGeometry>
        </mxCell>
        <mxCell id="Nx4aOD4Tvk4-uZYK7guE-755" value="" style="edgeStyle=orthogonalEdgeStyle;rounded=0;orthogonalLoop=1;jettySize=auto;html=1;fillColor=#6a00ff;strokeColor=#3700CC;entryX=0;entryY=0.5;entryDx=0;entryDy=0;exitX=1;exitY=0.5;exitDx=0;exitDy=0;" parent="1" target="Nx4aOD4Tvk4-uZYK7guE-724" edge="1" source="699">
          <mxGeometry relative="1" as="geometry">
            <mxPoint x="430" y="120" as="sourcePoint" />
            <mxPoint x="480" y="119.51999999999998" as="targetPoint" />
            <Array as="points" />
          </mxGeometry>
        </mxCell>
        <mxCell id="Nx4aOD4Tvk4-uZYK7guE-758" value="" style="shape=flexArrow;endArrow=classic;startArrow=classic;html=1;rounded=0;" parent="1" edge="1">
          <mxGeometry width="100" height="100" relative="1" as="geometry">
            <mxPoint x="530" y="400" as="sourcePoint" />
            <mxPoint x="530.48" y="320" as="targetPoint" />
          </mxGeometry>
        </mxCell>
        <mxCell id="Nx4aOD4Tvk4-uZYK7guE-760" value="" style="endArrow=classic;startArrow=classic;html=1;rounded=0;" parent="1" edge="1">
          <mxGeometry width="50" height="50" relative="1" as="geometry">
            <mxPoint x="530.48" y="230" as="sourcePoint" />
            <mxPoint x="530" y="180" as="targetPoint" />
          </mxGeometry>
        </mxCell>
        <mxCell id="uGt5rmS83LLdSEQJDZba-713" value="&lt;b&gt;push code chnages&amp;nbsp;&lt;/b&gt;" style="text;html=1;align=center;verticalAlign=middle;resizable=0;points=[];autosize=1;strokeColor=none;fillColor=none;" vertex="1" parent="1">
          <mxGeometry x="-30" y="79.59" width="140" height="30" as="geometry" />
        </mxCell>
        <mxCell id="uGt5rmS83LLdSEQJDZba-714" value="&lt;b&gt;pull &amp;amp; build code&lt;/b&gt;" style="text;html=1;align=center;verticalAlign=middle;resizable=0;points=[];autosize=1;strokeColor=none;fillColor=none;" vertex="1" parent="1">
          <mxGeometry x="195" y="94.59" width="120" height="30" as="geometry" />
        </mxCell>
        <mxCell id="uGt5rmS83LLdSEQJDZba-715" value="&lt;b&gt;run test&lt;/b&gt;" style="text;html=1;align=center;verticalAlign=middle;resizable=0;points=[];autosize=1;strokeColor=none;fillColor=none;" vertex="1" parent="1">
          <mxGeometry x="415" y="94.59" width="70" height="30" as="geometry" />
        </mxCell>
        <mxCell id="uGt5rmS83LLdSEQJDZba-717" value="" style="edgeStyle=orthogonalEdgeStyle;rounded=0;orthogonalLoop=1;jettySize=auto;html=1;fillColor=#6a00ff;strokeColor=#3700CC;endArrow=classic;endFill=1;entryX=-0.026;entryY=0.585;entryDx=0;entryDy=0;entryPerimeter=0;" edge="1" parent="1" target="706">
          <mxGeometry relative="1" as="geometry">
            <mxPoint x="620" y="129" as="sourcePoint" />
            <mxPoint x="750" y="125.40999999999997" as="targetPoint" />
            <Array as="points">
              <mxPoint x="620" y="126" />
              <mxPoint x="620" y="129" />
            </Array>
          </mxGeometry>
        </mxCell>
        <mxCell id="uGt5rmS83LLdSEQJDZba-719" value="&lt;b&gt;Upload test results&lt;/b&gt;" style="text;html=1;align=center;verticalAlign=middle;resizable=0;points=[];autosize=1;strokeColor=none;fillColor=none;" vertex="1" parent="1">
          <mxGeometry x="625" y="104.19" width="130" height="30" as="geometry" />
        </mxCell>
        <mxCell id="uGt5rmS83LLdSEQJDZba-720" value="&lt;b&gt;Deploy&lt;/b&gt;" style="text;html=1;align=center;verticalAlign=middle;resizable=0;points=[];autosize=1;strokeColor=none;fillColor=none;" vertex="1" parent="1">
          <mxGeometry x="910" y="88" width="60" height="30" as="geometry" />
        </mxCell>
        <mxCell id="uGt5rmS83LLdSEQJDZba-721" value="&lt;b&gt;Create/manage test suits&lt;/b&gt;" style="text;html=1;align=center;verticalAlign=middle;resizable=0;points=[];autosize=1;strokeColor=none;fillColor=none;" vertex="1" parent="1">
          <mxGeometry x="525" y="348" width="170" height="30" as="geometry" />
        </mxCell>
        <mxCell id="uGt5rmS83LLdSEQJDZba-722" value="&lt;b&gt;Select build to deploy&lt;/b&gt;" style="text;html=1;align=center;verticalAlign=middle;resizable=0;points=[];autosize=1;strokeColor=none;fillColor=none;" vertex="1" parent="1">
          <mxGeometry x="825" y="195" width="150" height="30" as="geometry" />
        </mxCell>
        <mxCell id="uGt5rmS83LLdSEQJDZba-723" value="&lt;b&gt;Run test suits&lt;/b&gt;" style="text;html=1;align=center;verticalAlign=middle;resizable=0;points=[];autosize=1;strokeColor=none;fillColor=none;" vertex="1" parent="1">
          <mxGeometry x="525" y="195" width="100" height="30" as="geometry" />
        </mxCell>
      </root>
    </mxGraphModel>
  </diagram>
</mxfile>
